<mxfile>
    <diagram id="qxMCXTOXAXrwimG7n5Dn" name="Page-1">
        <mxGraphModel dx="487" dy="448" grid="1" gridSize="10" guides="1" tooltips="1" connect="1" arrows="1" fold="1" page="1" pageScale="1" pageWidth="827" pageHeight="1169" math="0" shadow="0">
            <root>
                <mxCell id="0"/>
                <mxCell id="1" parent="0"/>
                <mxCell id="n07G5igNAWqy9VKFcbSD-1" value="" style="rounded=1;whiteSpace=wrap;html=1;strokeColor=#d6b656;gradientColor=none;fillColor=#E6E6E6;" parent="1" vertex="1">
                    <mxGeometry x="10" y="230" width="620" height="260" as="geometry"/>
                </mxCell>
                <mxCell id="pcv6e69SGLZQugEm7pIx-1" value="" style="rounded=1;whiteSpace=wrap;html=1;fillColor=#FFD966;strokeColor=#C2A44E;labelBorderColor=none;" parent="1" vertex="1">
                    <mxGeometry x="240" y="240" width="380" height="220" as="geometry"/>
                </mxCell>
                <mxCell id="pcv6e69SGLZQugEm7pIx-2" style="edgeStyle=orthogonalEdgeStyle;rounded=0;orthogonalLoop=1;jettySize=auto;html=1;exitX=1;exitY=0.5;exitDx=0;exitDy=0;entryX=0;entryY=0.5;entryDx=0;entryDy=0;" parent="1" source="pcv6e69SGLZQugEm7pIx-3" target="pcv6e69SGLZQugEm7pIx-5" edge="1">
                    <mxGeometry relative="1" as="geometry"/>
                </mxCell>
                <mxCell id="pcv6e69SGLZQugEm7pIx-4" style="edgeStyle=orthogonalEdgeStyle;rounded=0;orthogonalLoop=1;jettySize=auto;html=1;exitX=1;exitY=0.5;exitDx=0;exitDy=0;" parent="1" source="pcv6e69SGLZQugEm7pIx-5" edge="1">
                    <mxGeometry relative="1" as="geometry">
                        <mxPoint x="240" y="345" as="targetPoint"/>
                    </mxGeometry>
                </mxCell>
                <mxCell id="njXEWnHKlRGendsUYd-M-7" style="edgeStyle=orthogonalEdgeStyle;rounded=1;jumpStyle=gap;orthogonalLoop=1;jettySize=auto;html=1;exitX=0.5;exitY=0;exitDx=0;exitDy=0;entryX=0;entryY=0.5;entryDx=0;entryDy=0;shadow=0;startArrow=none;startFill=0;targetPerimeterSpacing=0;strokeColor=#000000;" parent="1" source="pcv6e69SGLZQugEm7pIx-7" target="pcv6e69SGLZQugEm7pIx-9" edge="1">
                    <mxGeometry relative="1" as="geometry"/>
                </mxCell>
                <mxCell id="pcv6e69SGLZQugEm7pIx-8" style="edgeStyle=orthogonalEdgeStyle;rounded=1;orthogonalLoop=1;jettySize=auto;html=1;exitX=1;exitY=0.5;exitDx=0;exitDy=0;entryX=0.5;entryY=0;entryDx=0;entryDy=0;" parent="1" source="pcv6e69SGLZQugEm7pIx-9" target="pcv6e69SGLZQugEm7pIx-11" edge="1">
                    <mxGeometry relative="1" as="geometry"/>
                </mxCell>
                <mxCell id="pcv6e69SGLZQugEm7pIx-10" style="edgeStyle=orthogonalEdgeStyle;rounded=0;orthogonalLoop=1;jettySize=auto;html=1;exitX=0;exitY=0.5;exitDx=0;exitDy=0;entryX=1;entryY=0.5;entryDx=0;entryDy=0;" parent="1" source="pcv6e69SGLZQugEm7pIx-11" target="pcv6e69SGLZQugEm7pIx-15" edge="1">
                    <mxGeometry relative="1" as="geometry"/>
                </mxCell>
                <mxCell id="pcv6e69SGLZQugEm7pIx-14" style="edgeStyle=orthogonalEdgeStyle;rounded=0;orthogonalLoop=1;jettySize=auto;html=1;exitX=0;exitY=0.5;exitDx=0;exitDy=0;entryX=1;entryY=0.5;entryDx=0;entryDy=0;" parent="1" source="pcv6e69SGLZQugEm7pIx-15" target="pcv6e69SGLZQugEm7pIx-7" edge="1">
                    <mxGeometry relative="1" as="geometry"/>
                </mxCell>
                <mxCell id="njXEWnHKlRGendsUYd-M-2" style="edgeStyle=orthogonalEdgeStyle;rounded=1;orthogonalLoop=1;jettySize=auto;html=1;exitX=0.5;exitY=1;exitDx=0;exitDy=0;entryX=1;entryY=0.5;entryDx=0;entryDy=0;dashed=1;" parent="1" source="pcv6e69SGLZQugEm7pIx-15" target="pcv6e69SGLZQugEm7pIx-18" edge="1">
                    <mxGeometry relative="1" as="geometry"/>
                </mxCell>
                <mxCell id="pcv6e69SGLZQugEm7pIx-15" value="&lt;font face=&quot;Georgia&quot; style=&quot;font-size: 10px&quot;&gt;Exception found&lt;/font&gt;&lt;font style=&quot;font-size: 10px&quot; face=&quot;Georgia&quot;&gt;?&lt;/font&gt;" style="rhombus;whiteSpace=wrap;html=1;fillColor=#C2A44E;" parent="1" vertex="1">
                    <mxGeometry x="440" y="315" width="60" height="60" as="geometry"/>
                </mxCell>
                <mxCell id="pcv6e69SGLZQugEm7pIx-16" value="&lt;font face=&quot;Georgia&quot;&gt;No&lt;/font&gt;" style="text;html=1;align=center;verticalAlign=middle;resizable=0;points=[];autosize=1;" parent="1" vertex="1">
                    <mxGeometry x="404" y="320" width="30" height="20" as="geometry"/>
                </mxCell>
                <mxCell id="pcv6e69SGLZQugEm7pIx-17" value="&lt;font face=&quot;Georgia&quot;&gt;Yes&lt;/font&gt;" style="text;html=1;align=center;verticalAlign=middle;resizable=0;points=[];autosize=1;" parent="1" vertex="1">
                    <mxGeometry x="480" y="375" width="30" height="20" as="geometry"/>
                </mxCell>
                <mxCell id="njXEWnHKlRGendsUYd-M-6" style="edgeStyle=orthogonalEdgeStyle;rounded=1;jumpStyle=gap;orthogonalLoop=1;jettySize=auto;html=1;exitX=0;exitY=0.5;exitDx=0;exitDy=0;shadow=0;dashed=1;startArrow=none;startFill=0;targetPerimeterSpacing=0;strokeColor=#000000;" parent="1" source="pcv6e69SGLZQugEm7pIx-18" edge="1">
                    <mxGeometry relative="1" as="geometry">
                        <mxPoint x="380" y="345" as="targetPoint"/>
                    </mxGeometry>
                </mxCell>
                <mxCell id="njXEWnHKlRGendsUYd-M-8" value="&lt;b&gt;&lt;font face=&quot;Georgia&quot; style=&quot;font-size: 14px&quot;&gt;Fuzzing Loop&lt;/font&gt;&lt;/b&gt;" style="text;html=1;align=center;verticalAlign=middle;resizable=0;points=[];autosize=1;" parent="1" vertex="1">
                    <mxGeometry x="500" y="430" width="100" height="20" as="geometry"/>
                </mxCell>
                <mxCell id="n07G5igNAWqy9VKFcbSD-2" value="&lt;b&gt;&lt;font face=&quot;Georgia&quot; style=&quot;font-size: 14px&quot;&gt;Fuzzing Testing&lt;/font&gt;&lt;/b&gt;" style="text;html=1;align=center;verticalAlign=middle;resizable=0;points=[];autosize=1;" parent="1" vertex="1">
                    <mxGeometry x="50" y="447.5" width="110" height="20" as="geometry"/>
                </mxCell>
                <mxCell id="pcv6e69SGLZQugEm7pIx-5" value="&lt;font face=&quot;Georgia&quot;&gt;Identify and setup&lt;br&gt;the inputs&lt;/font&gt;" style="rounded=0;whiteSpace=wrap;html=1;fillColor=#CFBFBF;" parent="1" vertex="1">
                    <mxGeometry x="130" y="320" width="90" height="50" as="geometry"/>
                </mxCell>
                <mxCell id="pcv6e69SGLZQugEm7pIx-3" value="&lt;font face=&quot;Georgia&quot;&gt;Identify and setup&lt;br&gt;the target&lt;/font&gt;" style="rounded=1;whiteSpace=wrap;html=1;fillColor=#CFBFBF;" parent="1" vertex="1">
                    <mxGeometry x="20" y="320" width="90" height="50" as="geometry"/>
                </mxCell>
                <mxCell id="pcv6e69SGLZQugEm7pIx-7" value="&lt;font face=&quot;Georgia&quot;&gt;Generate&lt;/font&gt;&lt;br&gt;&lt;font face=&quot;Georgia&quot;&gt;fuzzed data&lt;/font&gt;" style="rounded=0;whiteSpace=wrap;html=1;fillColor=#C2A44E;" parent="1" vertex="1">
                    <mxGeometry x="250" y="320" width="90" height="50" as="geometry"/>
                </mxCell>
                <mxCell id="pcv6e69SGLZQugEm7pIx-9" value="&lt;font face=&quot;Georgia&quot;&gt;Execute&lt;br&gt;fuzzed data&lt;/font&gt;" style="rounded=0;whiteSpace=wrap;html=1;fillColor=#C2A44E;" parent="1" vertex="1">
                    <mxGeometry x="385" y="250" width="90" height="50" as="geometry"/>
                </mxCell>
                <mxCell id="pcv6e69SGLZQugEm7pIx-11" value="&lt;font face=&quot;Georgia&quot;&gt;Monitor for&lt;br&gt;exceptions&lt;/font&gt;" style="rounded=0;whiteSpace=wrap;html=1;fillColor=#C2A44E;" parent="1" vertex="1">
                    <mxGeometry x="520" y="320" width="90" height="50" as="geometry"/>
                </mxCell>
                <mxCell id="pcv6e69SGLZQugEm7pIx-18" value="&lt;font style=&quot;font-size: 10px ; line-height: 100%&quot; face=&quot;Georgia&quot;&gt;&lt;font style=&quot;font-size: 10px&quot;&gt;Determine&lt;br&gt;&lt;/font&gt;exploitability&lt;/font&gt;" style="rounded=0;whiteSpace=wrap;html=1;fillColor=#C2A44E;gradientColor=#CFBFBF;" parent="1" vertex="1">
                    <mxGeometry x="365" y="437" width="75" height="41" as="geometry"/>
                </mxCell>
            </root>
        </mxGraphModel>
    </diagram>
</mxfile>